<svg width="71" height="71" viewBox="0 0 71 71" fill="none" xmlns="http://www.w3.org/2000/svg">
<mask id="path-1-inside-1_1245_6905" fill="white">
<path d="M18.0992 57.7196C18.0992 56.3659 18.6369 55.0676 19.5941 54.1104C20.5514 53.1532 21.8496 52.6154 23.2033 52.6154C24.557 52.6154 25.8553 53.1532 26.8125 54.1104C27.7697 55.0676 28.3075 56.3659 28.3075 57.7196C28.3075 59.0733 27.7697 60.3715 26.8125 61.3288C25.8553 62.286 24.557 62.8237 23.2033 62.8237C21.8496 62.8237 20.5514 62.286 19.5941 61.3288C18.6369 60.3715 18.0992 59.0733 18.0992 57.7196ZM48.1 52.6154C46.7463 52.6154 45.448 53.1532 44.4908 54.1104C43.5336 55.0676 42.9958 56.3659 42.9958 57.7196C42.9958 59.0733 43.5336 60.3715 44.4908 61.3288C45.448 62.286 46.7463 62.8237 48.1 62.8237C49.4537 62.8237 50.752 62.286 51.7092 61.3288C52.6664 60.3715 53.2042 59.0733 53.2042 57.7196C53.2042 56.3659 52.6664 55.0676 51.7092 54.1104C50.752 53.1532 49.4537 52.6154 48.1 52.6154Z"/>
<path fill-rule="evenodd" clip-rule="evenodd" d="M5.0675 12.5112C5.0675 11.9311 5.29797 11.3747 5.70821 10.9644C6.11844 10.5542 6.67484 10.3237 7.255 10.3237H10.6996C12.2819 10.3238 13.8108 10.8956 15.0049 11.9337C16.199 12.9718 16.9778 14.4064 17.1979 15.9733L17.3758 17.2421H58.1071C59.1962 17.2421 60.2682 17.5132 61.2264 18.0308C62.1846 18.5485 62.9989 19.2966 63.5959 20.2075C64.1928 21.1184 64.5537 22.1636 64.6459 23.2488C64.7382 24.334 64.5588 25.4251 64.1242 26.4237L56.3425 44.2971C55.8325 45.4688 54.9914 46.4662 53.9225 47.1667C52.8536 47.8672 51.6034 48.2404 50.3254 48.2404H23.0225C21.4402 48.2403 19.9113 47.6686 18.7172 46.6304C17.5231 45.5923 16.7443 44.1577 16.5242 42.5908L12.8667 16.5829C12.7935 16.0603 12.5338 15.5817 12.1356 15.2354C11.7373 14.8892 11.2273 14.6986 10.6996 14.6987H7.25792C6.67776 14.6987 6.12136 14.4683 5.71113 14.058C5.30089 13.6478 5.07042 13.0914 5.07042 12.5112M17.9942 21.6171L20.8583 41.9812C20.9315 42.5039 21.1912 42.9824 21.5894 43.3287C21.9877 43.6749 22.4977 43.8656 23.0254 43.8654H50.3283C50.7543 43.8657 51.1711 43.7417 51.5275 43.5086C51.884 43.2754 52.1646 42.9433 52.335 42.5529L60.1138 24.6737C60.2577 24.3412 60.3169 23.9781 60.2858 23.6171C60.2547 23.256 60.1345 22.9083 59.9358 22.6053C59.7371 22.3022 59.4663 22.0533 59.1476 21.8808C58.8289 21.7083 58.4724 21.6177 58.11 21.6171H17.9942Z"/>
</mask>
<path d="M18.0992 57.7196C18.0992 56.3659 18.6369 55.0676 19.5941 54.1104C20.5514 53.1532 21.8496 52.6154 23.2033 52.6154C24.557 52.6154 25.8553 53.1532 26.8125 54.1104C27.7697 55.0676 28.3075 56.3659 28.3075 57.7196C28.3075 59.0733 27.7697 60.3715 26.8125 61.3288C25.8553 62.286 24.557 62.8237 23.2033 62.8237C21.8496 62.8237 20.5514 62.286 19.5941 61.3288C18.6369 60.3715 18.0992 59.0733 18.0992 57.7196ZM48.1 52.6154C46.7463 52.6154 45.448 53.1532 44.4908 54.1104C43.5336 55.0676 42.9958 56.3659 42.9958 57.7196C42.9958 59.0733 43.5336 60.3715 44.4908 61.3288C45.448 62.286 46.7463 62.8237 48.1 62.8237C49.4537 62.8237 50.752 62.286 51.7092 61.3288C52.6664 60.3715 53.2042 59.0733 53.2042 57.7196C53.2042 56.3659 52.6664 55.0676 51.7092 54.1104C50.752 53.1532 49.4537 52.6154 48.1 52.6154Z" fill="#F8D307"/>
<path fill-rule="evenodd" clip-rule="evenodd" d="M5.0675 12.5112C5.0675 11.9311 5.29797 11.3747 5.70821 10.9644C6.11844 10.5542 6.67484 10.3237 7.255 10.3237H10.6996C12.2819 10.3238 13.8108 10.8956 15.0049 11.9337C16.199 12.9718 16.9778 14.4064 17.1979 15.9733L17.3758 17.2421H58.1071C59.1962 17.2421 60.2682 17.5132 61.2264 18.0308C62.1846 18.5485 62.9989 19.2966 63.5959 20.2075C64.1928 21.1184 64.5537 22.1636 64.6459 23.2488C64.7382 24.334 64.5588 25.4251 64.1242 26.4237L56.3425 44.2971C55.8325 45.4688 54.9914 46.4662 53.9225 47.1667C52.8536 47.8672 51.6034 48.2404 50.3254 48.2404H23.0225C21.4402 48.2403 19.9113 47.6686 18.7172 46.6304C17.5231 45.5923 16.7443 44.1577 16.5242 42.5908L12.8667 16.5829C12.7935 16.0603 12.5338 15.5817 12.1356 15.2354C11.7373 14.8892 11.2273 14.6986 10.6996 14.6987H7.25792C6.67776 14.6987 6.12136 14.4683 5.71113 14.058C5.30089 13.6478 5.07042 13.0914 5.07042 12.5112M17.9942 21.6171L20.8583 41.9812C20.9315 42.5039 21.1912 42.9824 21.5894 43.3287C21.9877 43.6749 22.4977 43.8656 23.0254 43.8654H50.3283C50.7543 43.8657 51.1711 43.7417 51.5275 43.5086C51.884 43.2754 52.1646 42.9433 52.335 42.5529L60.1138 24.6737C60.2577 24.3412 60.3169 23.9781 60.2858 23.6171C60.2547 23.256 60.1345 22.9083 59.9358 22.6053C59.7371 22.3022 59.4663 22.0533 59.1476 21.8808C58.8289 21.7083 58.4724 21.6177 58.11 21.6171H17.9942Z" fill="#F8D307"/>
<path d="M18.0992 57.7196H16.0992H18.0992ZM42.9958 57.7196H44.9958H42.9958ZM7.255 10.3237V8.32373V10.3237ZM10.6996 10.3237L10.6997 8.32373H10.6996V10.3237ZM17.1979 15.9733L19.1785 15.6956L19.1785 15.6951L17.1979 15.9733ZM17.3758 17.2421L15.3952 17.5198L15.6367 19.2421H17.3758V17.2421ZM58.1071 17.2421L58.1071 15.2421H58.1071V17.2421ZM64.1242 26.4237L65.9579 27.2221L65.958 27.222L64.1242 26.4237ZM56.3425 44.2971L54.5088 43.4987L54.5087 43.4988L56.3425 44.2971ZM50.3254 48.2404V50.2404H50.3255L50.3254 48.2404ZM23.0225 48.2404L23.0224 50.2404H23.0225V48.2404ZM16.5242 42.5908L18.5047 42.3126L18.5047 42.3123L16.5242 42.5908ZM12.8667 16.5829L10.886 16.8602L10.8862 16.8614L12.8667 16.5829ZM10.6996 14.6987V16.6987L10.7002 16.6987L10.6996 14.6987ZM7.25792 14.6987V16.6987V14.6987ZM17.9942 21.6171V19.6171H15.6932L16.0137 21.8956L17.9942 21.6171ZM20.8583 41.9812L22.839 41.7039L22.8388 41.7027L20.8583 41.9812ZM23.0254 43.8654V41.8654H23.0248L23.0254 43.8654ZM50.3283 43.8654L50.33 41.8654H50.3283V43.8654ZM52.335 42.5529L54.168 43.3529L54.1689 43.3508L52.335 42.5529ZM60.1138 24.6737L61.9477 25.4716L61.9491 25.4684L60.1138 24.6737ZM58.11 21.6171L58.1134 19.6171H58.11V21.6171ZM20.0992 57.7196C20.0992 56.8963 20.4262 56.1067 21.0084 55.5246L18.1799 52.6962C16.8476 54.0284 16.0992 55.8354 16.0992 57.7196H20.0992ZM21.0084 55.5246C21.5905 54.9424 22.3801 54.6154 23.2033 54.6154V50.6154C21.3192 50.6154 19.5122 51.3639 18.1799 52.6962L21.0084 55.5246ZM23.2033 54.6154C24.0266 54.6154 24.8162 54.9424 25.3983 55.5246L28.2267 52.6962C26.8945 51.3639 25.0875 50.6154 23.2033 50.6154V54.6154ZM25.3983 55.5246C25.9805 56.1067 26.3075 56.8963 26.3075 57.7196H30.3075C30.3075 55.8354 29.559 54.0284 28.2267 52.6962L25.3983 55.5246ZM26.3075 57.7196C26.3075 58.5428 25.9805 59.3324 25.3983 59.9145L28.2267 62.743C29.559 61.4107 30.3075 59.6037 30.3075 57.7196H26.3075ZM25.3983 59.9145C24.8162 60.4967 24.0266 60.8237 23.2033 60.8237V64.8237C25.0875 64.8237 26.8945 64.0753 28.2267 62.743L25.3983 59.9145ZM23.2033 60.8237C22.3801 60.8237 21.5905 60.4967 21.0084 59.9145L18.1799 62.743C19.5122 64.0753 21.3192 64.8237 23.2033 64.8237V60.8237ZM21.0084 59.9145C20.4262 59.3324 20.0992 58.5428 20.0992 57.7196H16.0992C16.0992 59.6037 16.8476 61.4107 18.1799 62.743L21.0084 59.9145ZM48.1 50.6154C46.2159 50.6154 44.4089 51.3639 43.0766 52.6962L45.905 55.5246C46.4872 54.9424 47.2767 54.6154 48.1 54.6154V50.6154ZM43.0766 52.6962C41.7443 54.0284 40.9958 55.8354 40.9958 57.7196H44.9958C44.9958 56.8963 45.3229 56.1067 45.905 55.5246L43.0766 52.6962ZM40.9958 57.7196C40.9958 59.6037 41.7443 61.4107 43.0766 62.743L45.905 59.9145C45.3229 59.3324 44.9958 58.5428 44.9958 57.7196H40.9958ZM43.0766 62.743C44.4089 64.0753 46.2159 64.8237 48.1 64.8237V60.8237C47.2767 60.8237 46.4872 60.4967 45.905 59.9145L43.0766 62.743ZM48.1 64.8237C49.9841 64.8237 51.7911 64.0753 53.1234 62.743L50.295 59.9145C49.7128 60.4967 48.9233 60.8237 48.1 60.8237V64.8237ZM53.1234 62.743C54.4557 61.4107 55.2042 59.6037 55.2042 57.7196H51.2042C51.2042 58.5428 50.8771 59.3324 50.295 59.9145L53.1234 62.743ZM55.2042 57.7196C55.2042 55.8354 54.4557 54.0284 53.1234 52.6962L50.295 55.5246C50.8771 56.1067 51.2042 56.8963 51.2042 57.7196H55.2042ZM53.1234 52.6962C51.7911 51.3639 49.9841 50.6154 48.1 50.6154V54.6154C48.9233 54.6154 49.7128 54.9424 50.295 55.5246L53.1234 52.6962ZM7.0675 12.5112C7.0675 12.4615 7.08726 12.4138 7.12242 12.3786L4.294 9.55022C3.50869 10.3355 3.0675 11.4006 3.0675 12.5112H7.0675ZM7.12242 12.3786C7.15758 12.3435 7.20528 12.3237 7.255 12.3237V8.32373C6.14441 8.32373 5.0793 8.76491 4.294 9.55022L7.12242 12.3786ZM7.255 12.3237H10.6996V8.32373H7.255V12.3237ZM10.6995 12.3237C11.7995 12.3238 12.8625 12.7213 13.6927 13.443L16.3171 10.4244C14.7591 9.06985 12.7642 8.32384 10.6997 8.32373L10.6995 12.3237ZM13.6927 13.443C14.5229 14.1648 15.0643 15.1622 15.2174 16.2515L19.1785 15.6951C18.8913 13.6507 17.8751 11.7789 16.3171 10.4244L13.6927 13.443ZM15.2173 16.2511L15.3952 17.5198L19.3565 16.9643L19.1785 15.6956L15.2173 16.2511ZM17.3758 19.2421H58.1071V15.2421H17.3758V19.2421ZM58.1071 19.2421C58.8643 19.2421 59.6095 19.4305 60.2757 19.7905L62.1771 16.2712C60.9268 15.5958 59.5281 15.2421 58.1071 15.2421L58.1071 19.2421ZM60.2757 19.7905C60.9419 20.1504 61.508 20.6704 61.9231 21.3038L65.2687 19.1113C64.4898 17.9227 63.4273 16.9467 62.1771 16.2712L60.2757 19.7905ZM61.9231 21.3038C62.3381 21.9371 62.589 22.6637 62.6531 23.4182L66.6387 23.0795C66.5184 21.6635 66.0476 20.2998 65.2687 19.1113L61.9231 21.3038ZM62.6531 23.4182C62.7172 24.1727 62.5926 24.9312 62.2904 25.6255L65.958 27.222C66.5251 25.919 66.7591 24.4954 66.6387 23.0795L62.6531 23.4182ZM62.2904 25.6254L54.5088 43.4987L58.1762 45.0954L65.9579 27.2221L62.2904 25.6254ZM54.5087 43.4988C54.1541 44.3135 53.5693 45.0069 52.8262 45.4939L55.0187 48.8395C56.4134 47.9255 57.5108 46.6242 58.1763 45.0953L54.5087 43.4988ZM52.8262 45.4939C52.0831 45.9809 51.2139 46.2404 50.3254 46.2404L50.3255 50.2404C51.9929 50.2404 53.6241 49.7535 55.0187 48.8395L52.8262 45.4939ZM50.3254 46.2404H23.0225V50.2404H50.3254V46.2404ZM23.0226 46.2404C21.9226 46.2403 20.8596 45.8428 20.0294 45.1211L17.405 48.1398C18.963 49.4943 20.9579 50.2403 23.0224 50.2404L23.0226 46.2404ZM20.0294 45.1211C19.1992 44.3993 18.6578 43.4019 18.5047 42.3126L14.5436 42.869C14.8308 44.9134 15.847 46.7853 17.405 48.1398L20.0294 45.1211ZM18.5047 42.3123L14.8472 16.3044L10.8862 16.8614L14.5437 42.8693L18.5047 42.3123ZM14.8473 16.3056C14.7073 15.3051 14.2102 14.389 13.4478 13.7261L10.8233 16.7447C10.8575 16.7744 10.8797 16.8154 10.886 16.8602L14.8473 16.3056ZM13.4478 13.7261C12.6855 13.0633 11.7092 12.6984 10.6989 12.6987L10.7002 16.6987C10.7455 16.6987 10.7892 16.7151 10.8233 16.7447L13.4478 13.7261ZM10.6996 12.6987H7.25792V16.6987H10.6996V12.6987ZM7.25792 12.6987C7.20819 12.6987 7.1605 12.679 7.12534 12.6438L4.29691 15.4722C5.08222 16.2575 6.14733 16.6987 7.25792 16.6987V12.6987ZM7.12534 12.6438C7.09018 12.6086 7.07042 12.561 7.07042 12.5112H3.07042C3.07042 13.6218 3.5116 14.6869 4.29691 15.4722L7.12534 12.6438ZM16.0137 21.8956L18.8778 42.2598L22.8388 41.7027L19.9747 21.3385L16.0137 21.8956ZM18.8777 42.2586C19.0177 43.259 19.5148 44.1751 20.2772 44.838L22.9017 41.8194C22.8675 41.7897 22.8453 41.7487 22.839 41.7039L18.8777 42.2586ZM20.2772 44.838C21.0395 45.5008 22.0158 45.8657 23.0261 45.8654L23.0248 41.8654C22.9795 41.8654 22.9358 41.8491 22.9017 41.8194L20.2772 44.838ZM23.0254 45.8654H50.3283V41.8654H23.0254V45.8654ZM50.3267 45.8654C51.1421 45.8661 51.9399 45.6287 52.6223 45.1823L50.4328 41.8348C50.4022 41.8548 50.3665 41.8654 50.33 41.8654L50.3267 45.8654ZM52.6223 45.1823C53.3047 44.736 53.8419 44.1002 54.168 43.3529L50.502 41.7529C50.4874 41.7864 50.4633 41.8148 50.4328 41.8348L52.6223 45.1823ZM54.1689 43.3508L61.9477 25.4716L58.2798 23.8758L50.5011 41.755L54.1689 43.3508ZM61.9491 25.4684C62.2247 24.8318 62.3379 24.1367 62.2784 23.4456L58.2932 23.7885C58.2958 23.8194 58.2907 23.8506 58.2784 23.8791L61.9491 25.4684ZM62.2784 23.4456C62.219 22.7545 61.9888 22.089 61.6084 21.5088L58.2632 23.7018C58.2802 23.7277 58.2905 23.7575 58.2932 23.7885L62.2784 23.4456ZM61.6084 21.5088C61.2281 20.9287 60.7097 20.4521 60.0996 20.1219L58.1956 23.6397C58.2229 23.6545 58.2461 23.6758 58.2632 23.7018L61.6084 21.5088ZM60.0996 20.1219C59.4896 19.7917 58.807 19.6182 58.1134 19.6171L58.1067 23.6171C58.1377 23.6171 58.1683 23.6249 58.1956 23.6397L60.0996 20.1219ZM58.11 19.6171H17.9942V23.6171H58.11V19.6171Z" fill="#F8D307" mask="url(#path-1-inside-1_1245_6905)"/>
</svg>
