<svg width="65" height="73" viewBox="0 0 65 73" fill="none" xmlns="http://www.w3.org/2000/svg">
<path d="M20.8333 12.0704H15.4167C13.9801 12.0704 12.6023 12.71 11.5865 13.8484C10.5707 14.9868 10 16.5308 10 18.1408V60.6336C10 62.2436 10.5707 63.7876 11.5865 64.926C12.6023 66.0645 13.9801 66.704 15.4167 66.704H47.9167C49.3533 66.704 50.731 66.0645 51.7468 64.926C52.7626 63.7876 53.3333 62.2436 53.3333 60.6336V54.5632M42.5 12.0704H47.9167C49.3533 12.0704 50.731 12.71 51.7468 13.8484C52.7626 14.9868 53.3333 16.5308 53.3333 18.1408V30.2816M56.0417 42.4224H28.9583M28.9583 42.4224L39.7917 30.2816M28.9583 42.4224L39.7917 54.5632M23.5417 6H39.7917C41.2874 6 42.5 7.35891 42.5 9.0352V15.1056C42.5 16.7819 41.2874 18.1408 39.7917 18.1408H23.5417C22.0459 18.1408 20.8333 16.7819 20.8333 15.1056V9.0352C20.8333 7.35891 22.0459 6 23.5417 6Z" stroke="#F8D307" stroke-width="4.8" stroke-linecap="round" stroke-linejoin="round"/>
</svg>
