<svg width="28" height="50" viewBox="0 0 28 50" fill="none" xmlns="http://www.w3.org/2000/svg">
    <path d="M11 5.83846H11.3385V5.5V2.75C11.3385 2.11042 11.5925 1.49704 12.0448 1.04478C12.497 0.592533 13.1104 0.338462 13.75 0.338462C14.3896 0.338462 15.003 0.592533 15.4552 1.04478C15.9075 1.49704 16.1615 2.11042 16.1615 2.75V5.5V5.83852L16.5001 5.83846C18.7053 5.83811 20.8563 6.52156 22.6569 7.79466C24.4566 9.06715 25.8177 10.8661 26.5528 12.944C26.7513 13.5428 26.7072 14.1956 26.4299 14.7624C26.1522 15.3301 25.6628 15.766 25.0669 15.9765C24.471 16.187 23.8163 16.1551 23.2437 15.8878C22.6719 15.6209 22.2276 15.1406 22.0059 14.5499C21.6029 13.4126 20.8574 12.4281 19.872 11.7318C18.8857 11.0349 17.7075 10.6609 16.4998 10.6615L16.1615 10.6617V11V22V22.3385H16.5C19.3276 22.3385 22.0394 23.4617 24.0388 25.4612C26.0383 27.4606 27.1615 30.1724 27.1615 33C27.1615 35.8276 26.0383 38.5394 24.0388 40.5388C22.0394 42.5383 19.3276 43.6615 16.5 43.6615H16.1615V44V46.75C16.1615 47.3896 15.9075 48.003 15.4552 48.4552C15.003 48.9075 14.3896 49.1615 13.75 49.1615C13.1104 49.1615 12.497 48.9075 12.0448 48.4552C11.5925 48.003 11.3385 47.3896 11.3385 46.75V44V43.6615L10.9999 43.6615C8.79474 43.6619 6.64369 42.9784 4.8431 41.7053C3.04338 40.4328 1.68231 38.6338 0.94718 36.556C0.748726 35.9571 0.792818 35.3043 1.07008 34.7376C1.34779 34.1699 1.83724 33.734 2.43311 33.5235C3.02898 33.313 3.68367 33.3449 4.25631 33.6122C4.82814 33.8791 5.27252 34.3595 5.49416 34.9503C5.89718 36.0875 6.64263 37.0719 7.62803 37.7682C8.61433 38.4651 9.79249 38.8391 11.0002 38.8385L11.3385 38.8383V38.5V27.5V27.1615H11C8.17238 27.1615 5.46058 26.0383 3.46115 24.0388C1.46173 22.0394 0.338462 19.3276 0.338462 16.5C0.338462 13.6724 1.46173 10.9606 3.46115 8.96115C5.46058 6.96173 8.17238 5.83846 11 5.83846ZM11.3385 11V10.6615H11C9.45154 10.6615 7.96651 11.2767 6.87159 12.3716C5.77666 13.4665 5.16154 14.9515 5.16154 16.5C5.16154 18.0485 5.77666 19.5335 6.87159 20.6284C7.96651 21.7233 9.45154 22.3385 11 22.3385H11.3385V22V11ZM16.5 27.1615H16.1615V27.5V38.5V38.8385H16.5C18.0485 38.8385 19.5335 38.2233 20.6284 37.1284C21.7233 36.0335 22.3385 34.5485 22.3385 33C22.3385 31.4515 21.7233 29.9665 20.6284 28.8716C19.5335 27.7767 18.0485 27.1615 16.5 27.1615Z" fill="#F8D307" stroke="white" stroke-width="0.676923"/>
</svg>
