<svg width="36" height="28" viewBox="0 0 36 28" fill="none" xmlns="http://www.w3.org/2000/svg">
<path d="M36 6.18652V22.7501C36.0001 24.0892 35.4738 25.3777 34.5289 26.352C33.584 27.3263 32.2918 27.9128 30.9168 27.9913L30.6 28.0001H5.4C4.02262 28.0001 2.69727 27.4885 1.69513 26.5698C0.692988 25.6512 0.0898065 24.3949 0.00900021 23.0581L0 22.7501V6.18652L17.001 17.2062L17.2098 17.3217C17.4559 17.4386 17.7261 17.4993 18 17.4993C18.2739 17.4993 18.5441 17.4386 18.7902 17.3217L18.999 17.2062L36 6.18652Z" fill="#F8D307"/>
<path d="M30.6 0C32.544 0 34.2486 0.99749 35.199 2.49723L18 13.6446L0.80101 2.49723C1.25244 1.78467 1.87253 1.18736 2.6096 0.755099C3.34667 0.322834 4.17934 0.0681395 5.03821 0.0122498L5.40001 0H30.6Z" fill="#F8D307"/>
</svg>
