<svg width="65" height="72" viewBox="0 0 65 72" fill="none" xmlns="http://www.w3.org/2000/svg">
<path d="M40 39.8447L30.9 51.2197L27 46.6616" stroke="#F8D307" stroke-width="4" stroke-linecap="round" stroke-linejoin="round"/>
<path d="M44.0975 18.6772V19.0772H44.4975H50.4137C53.4468 19.0772 55.93 21.5605 55.93 24.5935V60.091C55.93 63.124 53.4468 65.6072 50.4137 65.6072H14.9163C11.8832 65.6072 9.4 63.124 9.4 60.091V24.5935C9.4 21.5605 11.8832 19.0772 14.9163 19.0772H20.8325H21.2325V18.6772C21.2325 12.3607 26.3485 7.24473 32.665 7.24473C38.9815 7.24473 44.0975 12.3607 44.0975 18.6772ZM38.5813 19.0772H38.9813V18.6772C38.9813 15.2024 36.1399 12.361 32.665 12.361C29.1902 12.361 26.3488 15.2024 26.3488 18.6772V19.0772H26.7488H38.5813ZM50.4137 60.491H50.8138V60.091V24.5935V24.1935H50.4137H44.4975H44.0975V24.5935V30.5097C44.0975 31.9158 42.9454 33.0679 41.5394 33.0679C40.1333 33.0679 38.9813 31.9158 38.9813 30.5097V24.5935V24.1935H38.5813H26.7488H26.3488V24.5935V30.5097C26.3488 31.9158 25.1967 33.0679 23.7906 33.0679C22.3846 33.0679 21.2325 31.9158 21.2325 30.5097V24.5935V24.1935H20.8325H14.9163H14.5163V24.5935V60.091V60.491H14.9163H50.4137Z" fill="#F8D307" stroke="white" stroke-width="0.8"/>
</svg>
