<svg width="49" height="49" viewBox="0 0 49 49" fill="none" xmlns="http://www.w3.org/2000/svg">
    <path fill-rule="evenodd" clip-rule="evenodd" d="M11.0387 19.1648C12.5053 19.1648 13.9119 18.5579 14.949 17.4776C15.9861 16.3973 16.5687 14.9321 16.5687 13.4044C16.5687 11.8766 15.9861 10.4114 14.949 9.3311C13.9119 8.2508 12.5053 7.6439 11.0387 7.6439C9.572 7.6439 8.16541 8.2508 7.12832 9.3311C6.09124 10.4114 5.50861 11.8766 5.50861 13.4044C5.50861 14.9321 6.09124 16.3973 7.12832 17.4776C8.16541 18.5579 9.572 19.1648 11.0387 19.1648ZM11.0387 22.045C12.128 22.045 13.2066 21.8215 14.213 21.3873C15.2194 20.9531 16.1339 20.3166 16.9041 19.5142C17.6744 18.7119 18.2854 17.7593 18.7023 16.711C19.1192 15.6627 19.3337 14.5391 19.3337 13.4044C19.3337 12.2696 19.1192 11.146 18.7023 10.0977C18.2854 9.04937 17.6744 8.09683 16.9041 7.29447C16.1339 6.49211 15.2194 5.85564 14.213 5.42141C13.2066 4.98717 12.128 4.76367 11.0387 4.76367C8.83867 4.76367 6.72879 5.67403 5.17316 7.29447C3.61754 8.91491 2.7436 11.1127 2.7436 13.4044C2.7436 15.696 3.61754 17.8938 5.17316 19.5142C6.72879 21.1347 8.83867 22.045 11.0387 22.045Z" fill="#F8D307"/>
    <path fill-rule="evenodd" clip-rule="evenodd" d="M7.86994 18.8657C7.99869 18.9995 8.10084 19.1584 8.17053 19.3334C8.24023 19.5084 8.2761 19.6959 8.2761 19.8853C8.2761 20.0748 8.24023 20.2623 8.17053 20.4373C8.10084 20.6123 7.99869 20.7712 7.86994 20.9049L6.93536 21.8756C5.13681 23.7496 4.12634 26.2909 4.1261 28.9408V34.2865C4.1261 34.6684 3.98045 35.0347 3.72118 35.3048C3.4619 35.5749 3.11026 35.7266 2.74359 35.7266C2.37693 35.7266 2.02528 35.5749 1.76601 35.3048C1.50674 35.0347 1.36108 34.6684 1.36108 34.2865V28.9408C1.36148 25.5271 2.66337 22.2533 4.98049 19.8393L5.91231 18.8657C6.04073 18.7316 6.19329 18.6252 6.36125 18.5526C6.52921 18.48 6.70927 18.4427 6.89112 18.4427C7.07297 18.4427 7.25303 18.48 7.42099 18.5526C7.58895 18.6252 7.74152 18.7316 7.86994 18.8657ZM40.475 18.0017C40.3463 18.1354 40.2442 18.2944 40.1745 18.4693C40.1048 18.6443 40.0689 18.8318 40.0689 19.0213C40.0689 19.2107 40.1048 19.3983 40.1745 19.5732C40.2442 19.7482 40.3463 19.9071 40.475 20.0409L41.4096 21.0115C43.2082 22.8855 44.2186 25.4268 44.2189 28.0767V34.2865C44.2189 34.6684 44.3645 35.0347 44.6238 35.3048C44.8831 35.5749 45.2347 35.7266 45.6014 35.7266C45.9681 35.7266 46.3197 35.5749 46.579 35.3048C46.8382 35.0347 46.9839 34.6684 46.9839 34.2865V28.0767C46.9835 24.663 45.6816 21.3892 43.3645 18.9752L42.4327 18.0017C42.3043 17.8676 42.1517 17.7612 41.9837 17.6886C41.8158 17.616 41.6357 17.5786 41.4539 17.5786C41.272 17.5786 41.092 17.616 40.924 17.6886C40.756 17.7612 40.6035 17.8676 40.475 18.0017Z" fill="#F8D307"/>
    <path fill-rule="evenodd" clip-rule="evenodd" d="M35.9238 19.1648C34.4571 19.1648 33.0506 18.5579 32.0135 17.4776C30.9764 16.3973 30.3938 14.9321 30.3938 13.4044C30.3938 11.8766 30.9764 10.4114 32.0135 9.3311C33.0506 8.2508 34.4571 7.6439 35.9238 7.6439C37.3905 7.6439 38.797 8.2508 39.8341 9.3311C40.8712 10.4114 41.4538 11.8766 41.4538 13.4044C41.4538 14.9321 40.8712 16.3973 39.8341 17.4776C38.797 18.5579 37.3905 19.1648 35.9238 19.1648ZM35.9238 22.045C34.8345 22.045 33.7558 21.8215 32.7494 21.3873C31.743 20.9531 30.8286 20.3166 30.0583 19.5142C29.288 18.7119 28.677 17.7593 28.2602 16.711C27.8433 15.6627 27.6287 14.5391 27.6287 13.4044C27.6287 12.2696 27.8433 11.146 28.2602 10.0977C28.677 9.04937 29.288 8.09683 30.0583 7.29447C30.8286 6.49211 31.743 5.85564 32.7494 5.42141C33.7558 4.98717 34.8345 4.76367 35.9238 4.76367C38.1238 4.76367 40.2337 5.67403 41.7893 7.29447C43.3449 8.91491 44.2189 11.1127 44.2189 13.4044C44.2189 15.696 43.3449 17.8938 41.7893 19.5142C40.2337 21.1347 38.1238 22.045 35.9238 22.045ZM23.4812 31.4058C21.6479 31.4058 19.8897 32.1644 18.5933 33.5148C17.297 34.8652 16.5687 36.6966 16.5687 38.6064V42.3507C16.5687 42.7326 16.423 43.0989 16.1637 43.369C15.9045 43.639 15.5528 43.7908 15.1862 43.7908C14.8195 43.7908 14.4678 43.639 14.2086 43.369C13.9493 43.0989 13.8036 42.7326 13.8036 42.3507V38.6064C13.8036 35.9328 14.8232 33.3687 16.6381 31.4782C18.453 29.5876 20.9146 28.5256 23.4812 28.5256C26.0479 28.5256 28.5094 29.5876 30.3243 31.4782C32.1392 33.3687 33.1588 35.9328 33.1588 38.6064V42.3507C33.1588 42.7326 33.0131 43.0989 32.7539 43.369C32.4946 43.639 32.1429 43.7908 31.7763 43.7908C31.4096 43.7908 31.058 43.639 30.7987 43.369C30.5394 43.0989 30.3938 42.7326 30.3938 42.3507V38.6064C30.3938 37.6608 30.215 36.7244 29.8676 35.8508C29.5202 34.9772 29.011 34.1834 28.3691 33.5148C27.7272 32.8462 26.9652 32.3158 26.1265 31.9539C25.2879 31.592 24.389 31.4058 23.4812 31.4058Z" fill="#F8D307"/>
    <path fill-rule="evenodd" clip-rule="evenodd" d="M23.4813 27.0856C24.9479 27.0856 26.3545 26.4787 27.3916 25.3984C28.4287 24.3181 29.0113 22.8529 29.0113 21.3251C29.0113 19.7974 28.4287 18.3322 27.3916 17.2519C26.3545 16.1716 24.9479 15.5647 23.4813 15.5647C22.0146 15.5647 20.608 16.1716 19.5709 17.2519C18.5338 18.3322 17.9512 19.7974 17.9512 21.3251C17.9512 22.8529 18.5338 24.3181 19.5709 25.3984C20.608 26.4787 22.0146 27.0856 23.4813 27.0856ZM23.4813 29.9658C25.6812 29.9658 27.7911 29.0555 29.3467 27.435C30.9024 25.8146 31.7763 23.6168 31.7763 21.3251C31.7763 19.0335 30.9024 16.8357 29.3467 15.2152C27.7911 13.5948 25.6812 12.6844 23.4813 12.6844C21.2813 12.6844 19.1714 13.5948 17.6158 15.2152C16.0601 16.8357 15.1862 19.0335 15.1862 21.3251C15.1862 23.6168 16.0601 25.8146 17.6158 27.435C19.1714 29.0555 21.2813 29.9658 23.4813 29.9658Z" fill="#F8D307"/>
</svg>
