<svg width="49" height="49" viewBox="0 0 49 49" fill="none" xmlns="http://www.w3.org/2000/svg">
    <path d="M24.5 1.53132C18.2066 1.33315 12.0917 3.64063 7.49819 7.94709C2.90463 12.2536 0.207847 18.207 0 24.5001C0.207847 30.7932 2.90463 36.7466 7.49819 41.053C12.0917 45.3595 18.2066 47.667 24.5 47.4688C30.7934 47.667 36.9083 45.3595 41.5018 41.053C46.0954 36.7466 48.7922 30.7932 49 24.5001C48.7922 18.207 46.0954 12.2536 41.5018 7.94709C36.9083 3.64063 30.7934 1.33315 24.5 1.53132ZM45.0494 22.3563L41.2825 21.4376C40.5169 21.2232 40.4556 21.1619 40.3944 21.0701C39.935 20.4576 39.4144 19.6307 38.9244 18.8344C38.9244 18.5588 38.5263 18.1301 38.4344 17.8851C38.3425 17.6401 39.5063 16.0476 39.9963 15.3126C40.5235 14.7623 41.133 14.2974 41.8031 13.9344C43.5802 16.4219 44.6972 19.3196 45.0494 22.3563ZM24.5 5.35944L24.2244 5.88007C24.1984 5.77963 24.1984 5.67425 24.2244 5.57382C24.2244 5.75757 23.765 6.03319 23.4587 6.33944L22.54 7.22757C22.121 7.6644 21.8673 8.2336 21.8226 8.83725C21.7779 9.4409 21.9449 10.0413 22.295 10.5351H21.9275C21.4439 10.549 20.9697 10.672 20.5402 10.8947C20.1107 11.1174 19.737 11.4341 19.4469 11.8213C19.1083 12.288 18.8777 12.8241 18.7717 13.3908C18.6658 13.9575 18.6872 14.5407 18.8344 15.0982V15.3126C18.3877 15.3922 17.9475 15.5048 17.5175 15.6494L16.7825 15.8944L14.8225 16.5376C14.2385 16.7086 13.7061 17.022 13.2732 17.4497C12.8402 17.8773 12.5202 18.4057 12.3419 18.9876C12.1994 19.4758 12.1808 19.9919 12.2878 20.4891C12.3947 20.9864 12.6238 21.4492 12.9544 21.8357C14.182 23.1603 15.6077 24.2864 17.1806 25.1738C18.7224 26.1976 20.4669 26.8766 22.295 27.1644H27.44C28.0596 27.1348 28.6765 27.2625 29.2334 27.5356C29.7903 27.8087 30.2691 28.2184 30.625 28.7263C30.7916 28.8982 30.9146 29.1074 30.9839 29.3364C31.0531 29.5655 31.0666 29.8079 31.0231 30.0432C30.9585 30.4323 30.8009 30.8 30.5637 31.1151C29.0378 32.3597 28.0061 34.1082 27.6544 36.0457C27.2586 37.4855 26.7675 38.8973 26.1844 40.2719C25.8169 41.2213 25.48 42.1401 25.235 42.8751C24.2076 42.95 23.1749 42.8673 22.1725 42.6301C22.4165 40.3547 21.8763 38.0641 20.6412 36.1376C19.6113 34.9206 19.0374 33.383 19.0181 31.7888C19.216 30.2766 18.8727 28.743 18.0488 27.4596C17.2249 26.1761 15.9736 25.2254 14.5162 24.7757C11.0872 22.6453 8.07721 19.9051 5.635 16.6907C7.4048 13.2264 10.1109 10.3281 13.4457 8.325C16.7805 6.32193 20.6104 5.2945 24.5 5.35944ZM3.82812 24.5001C3.82665 23.3063 3.94982 22.1157 4.19563 20.9476C6.71017 23.9561 9.76359 26.4695 13.1994 28.3588C15.0369 29.0326 15.3125 29.7369 15.3125 31.7888C15.3193 34.3486 16.2552 36.819 17.9463 38.7407C18.3979 40.0691 18.5444 41.4822 18.375 42.8751C14.2821 41.8106 10.6477 39.4409 8.02265 36.125C5.39763 32.8092 3.92506 28.7281 3.82812 24.5001ZM29.3081 43.1201C29.3081 42.6607 29.6756 42.1401 29.8594 41.6501C30.5582 40.0673 31.1217 38.4281 31.5438 36.7501C31.7836 35.7114 32.3661 34.7836 33.1975 34.1163C34.2719 33.0646 34.8974 31.6378 34.9431 30.1351C34.9825 29.4227 34.875 28.7099 34.6274 28.0409C34.3798 27.3718 33.9973 26.7608 33.5037 26.2457C32.7671 25.342 31.8301 24.6224 30.7669 24.1439C29.7037 23.6655 28.5436 23.4414 27.3787 23.4894H22.5094C20.2236 22.8664 18.1223 21.7002 16.3844 20.0901L17.8238 19.6001L18.6506 19.3551C19.0152 19.1896 19.4148 19.116 19.8144 19.1407L20.09 19.6001C20.3192 20.0299 20.7002 20.3589 21.1588 20.5231C21.6174 20.6873 22.1207 20.6749 22.5706 20.4882C23.016 20.2804 23.3688 19.9152 23.561 19.4629C23.7533 19.0105 23.7714 18.5031 23.6119 18.0382V17.4869C23.275 16.5682 22.8769 15.2819 22.6319 14.4244C23.4262 14.4578 24.2145 14.2727 24.911 13.8893C25.6076 13.506 26.1857 12.939 26.5825 12.2501C26.7726 11.7369 26.8218 11.1822 26.7248 10.6436C26.6279 10.105 26.3884 9.60222 26.0312 9.18757C26.3919 8.86441 26.7296 8.51648 27.0419 8.14632C27.323 7.80995 27.5286 7.41716 27.6448 6.99449C27.7611 6.57182 27.7852 6.12912 27.7156 5.69632C31.9962 6.32645 35.982 8.24987 39.1387 11.2088C38.2119 11.7748 37.3928 12.5006 36.7194 13.3526C35.9886 14.418 35.3337 15.5334 34.7594 16.6907C34.5123 17.4046 34.4502 18.1694 34.5787 18.9138C34.7072 19.6582 35.0222 20.3579 35.4944 20.9476C36.0456 21.8969 36.6581 22.8157 37.2094 23.5813C37.9692 24.539 39.0633 25.1736 40.2719 25.3576C40.9456 25.5413 43.3344 26.0313 45.0187 26.3682C44.4772 30.4513 42.6709 34.2624 39.8533 37.2668C37.0357 40.2712 33.3481 42.318 29.3081 43.1201Z" fill="#F8D307"/>
</svg>
