<svg width="156" height="123" viewBox="0 0 156 123" fill="none" xmlns="http://www.w3.org/2000/svg">
    <path d="M46.9597 123V114.803H103.126V123H46.9597Z" fill="#F8D307"/>
    <path d="M57.0074 72.7683C55.132 70.8768 55.132 67.8098 57.0074 65.9182C58.8835 64.0266 61.9254 64.0266 63.8015 65.9182L78.4333 80.6728C80.3094 82.5644 80.3094 85.6314 78.4333 87.523C76.5572 89.4145 73.516 89.4145 71.6399 87.523L57.0074 72.7683Z" fill="#F8D307"/>
    <path d="M86.4261 66.0613C88.3022 64.1697 91.3441 64.1697 93.2195 66.0613C95.0956 67.9528 95.0956 71.0198 93.2195 72.9114L78.5877 87.666C76.7116 89.5582 73.6704 89.5582 71.7943 87.666C69.9182 85.7745 69.9182 82.7074 71.7943 80.8159L86.4261 66.0613Z" fill="#F8D307"/>
    <path d="M106.821 57.4199H114.95V110.33H106.821V57.4199Z" fill="#F8D307"/>
    <path d="M91.8936 114.803C92.2264 115.823 92.6957 116.798 93.294 117.701C94.5932 119.662 96.4397 121.19 98.6008 122.093C100.761 122.995 103.139 123.231 105.433 122.771C107.726 122.311 109.833 121.175 111.487 119.508C113.14 117.84 114.267 115.716 114.723 113.403C115.179 111.09 114.945 108.692 114.05 106.513C113.155 104.335 111.64 102.473 109.695 101.162C108.8 100.559 107.832 100.086 106.82 99.7502V111.076C106.82 113.134 105.166 114.803 103.126 114.803H91.8936Z" fill="#F8D307"/>
    <path d="M35.135 57.4199H43.2643V111.076H35.135V57.4199Z" fill="#F8D307"/>
    <path d="M43.2646 99.7502C42.253 100.086 41.2855 100.559 40.3905 101.162C38.4459 102.473 36.9303 104.335 36.0354 106.513C35.1404 108.692 34.9062 111.09 35.3625 113.403C35.8187 115.716 36.9449 117.84 38.5985 119.508C40.2523 121.175 42.3591 122.311 44.6529 122.771C46.9466 123.231 49.3242 122.995 51.4848 122.093C53.6454 121.19 55.4919 119.662 56.7917 117.701C57.3893 116.798 57.8593 115.823 58.1921 114.803H46.9598C44.919 114.803 43.2646 113.134 43.2646 111.076V99.7502Z" fill="#F8D307"/>
    <path d="M47.699 53.6937V45.4963H103.127V53.6937H47.699Z" fill="#F8D307"/>
    <path d="M106.821 68.7461C107.833 68.4104 108.8 67.9372 109.695 67.334C111.64 66.0236 113.155 64.1617 114.05 61.9828C114.945 59.8041 115.179 57.4066 114.723 55.0937C114.267 52.7808 113.141 50.6562 111.487 48.9887C109.833 47.3211 107.726 46.1855 105.433 45.7254C103.139 45.2654 100.761 45.5015 98.6008 46.4039C96.4403 47.3064 94.5938 48.8347 93.294 50.7955C92.6963 51.6981 92.2264 52.6736 91.8936 53.6937H103.126C105.166 53.6937 106.821 55.362 106.821 57.4198V68.7461Z" fill="#F8D307"/>
    <path d="M58.1919 53.6937C57.8591 52.6736 57.3891 51.6981 56.7914 50.7955C55.4916 48.8347 53.6451 47.3064 51.4845 46.4039C49.3239 45.5015 46.9464 45.2654 44.6527 45.7254C42.3589 46.1855 40.252 47.3211 38.5983 48.9887C36.9446 50.6562 35.8185 52.7808 35.3622 55.0937C34.906 57.4066 35.1401 59.8041 36.0351 61.9828C36.93 64.1617 38.4456 66.0236 40.3902 67.334C41.2852 67.9372 42.2527 68.4104 43.2644 68.7461V57.4198C43.2644 55.362 44.9187 53.6937 46.9595 53.6937H58.1919Z" fill="#F8D307"/>
    <path d="M10.3462 48.4395C10.3462 46.3816 12.0006 44.7134 14.0413 44.7134C16.0821 44.7134 17.7365 46.3816 17.7365 48.4395V119.235C17.7365 121.293 16.0821 122.961 14.0413 122.961C12.0006 122.961 10.3462 121.293 10.3462 119.235V48.4395Z" fill="#F8D307"/>
    <path d="M131.548 40.9873C131.548 38.9294 133.202 37.2612 135.243 37.2612C137.283 37.2612 138.938 38.9294 138.938 40.9873V119.235C138.938 121.293 137.283 122.961 135.243 122.961C133.202 122.961 131.548 121.293 131.548 119.235V40.9873Z" fill="#F8D307"/>
    <path d="M49.9153 41.0255C49.9153 29.913 58.849 20.9045 69.869 20.9045H80.2158C91.2357 20.9045 100.169 29.913 100.169 41.0255V45.4968H91.3011V41.0255C91.3011 34.4403 86.007 29.102 79.4765 29.102H70.6082C64.0778 29.102 58.7836 34.4403 58.7836 41.0255V45.4968H49.9153V41.0255Z" fill="#F8D307"/>
    <path d="M22.5405 4.47086C22.5405 2.82457 23.4945 1.48999 25.1271 1.48999C26.7598 1.48999 28.0832 2.82457 28.0832 4.47086L29.5613 36.5153C29.5613 38.1615 28.2378 39.4962 26.6052 39.4962C24.9726 39.4962 23.6491 38.1615 23.6491 36.5153L22.5405 4.47086Z" fill="#F8D307"/>
    <path d="M11.8245 4.47086C11.8245 2.82457 13.148 1.48999 14.7806 1.48999C16.4132 1.48999 17.7367 2.82457 17.7367 4.47086V36.5153C17.7367 38.1615 16.4132 39.4962 14.7806 39.4962C13.148 39.4962 11.8245 38.1615 11.8245 36.5153V4.47086Z" fill="#F8D307"/>
    <path d="M1.47809 4.47086C1.47809 2.82457 2.80154 1.48999 4.43422 1.48999C6.06683 1.48999 7.02079 2.82457 7.02079 4.47086L5.91225 36.5153C5.91225 38.1615 4.58873 39.4962 2.95612 39.4962C1.32351 39.4962 0 38.1615 0 36.5153L1.47809 4.47086Z" fill="#F8D307"/>
    <path d="M5.91225 27.5217C2.38669 29.491 0 33.2808 0 37.6327C0 44.0121 5.1286 49.1836 11.455 49.1836H18.1062C24.4326 49.1836 29.5612 44.0121 29.5612 37.6327C29.5612 33.2808 27.1745 29.491 23.649 27.5217V32.0436C23.649 33.6898 22.3255 35.0245 20.6929 35.0245C19.0603 35.0245 17.7367 33.6898 17.7367 32.0436V26.0818H11.8245V32.0436C11.8245 33.6898 10.501 35.0245 8.86837 35.0245C7.23576 35.0245 5.91225 33.6898 5.91225 32.0436V27.5217Z" fill="#F8D307"/>
    <path fill-rule="evenodd" clip-rule="evenodd" d="M135.612 40.2418C146.428 40.2418 155.197 31.2334 155.197 20.1209C155.197 9.00847 146.428 0 135.612 0C124.796 0 116.028 9.00847 116.028 20.1209C116.028 31.2334 124.796 40.2418 135.612 40.2418ZM147.561 12.8623C148.211 14.2185 148.545 15.6721 148.545 17.14H122.679C122.679 15.6721 123.014 14.2185 123.664 12.8623C124.314 11.5061 125.266 10.2738 126.467 9.2358C127.668 8.19777 129.094 7.37439 130.663 6.81266C132.232 6.2509 133.914 5.96175 135.612 5.96175C137.31 5.96175 138.993 6.2509 140.562 6.81266C142.131 7.37439 143.556 8.19777 144.757 9.2358C145.958 10.2738 146.911 11.5061 147.561 12.8623Z" fill="#F8D307"/>
</svg>
