<svg width="140" height="28" viewBox="0 0 140 28" fill="none" xmlns="http://www.w3.org/2000/svg">
    <path d="M19.7102 0C20.3098 0 20.8443 0.235624 21.3136 0.706873C21.8089 1.15159 22.0566 1.72791 22.0566 2.43478C22.0566 2.6704 22.0175 2.91876 21.9393 3.18092C21.8871 3.41654 21.7828 3.65217 21.6264 3.88779L12.749 16.6508L13.453 13.9411V25.2118C13.453 25.8921 13.2183 26.4684 12.749 26.9397C12.3058 27.3844 11.7844 27.6073 11.1847 27.6073C10.533 27.6073 9.9724 27.3844 9.50311 26.9397C9.05987 26.4684 8.83828 25.8921 8.83828 25.2118V14.2552L9.15114 15.5119L0.703934 4.24123C0.44322 3.90053 0.260715 3.57363 0.15643 3.25947C0.052145 2.9453 0 2.65714 0 2.39551C0 1.68864 0.273752 1.11231 0.821257 0.667599C1.36876 0.222355 1.9293 0 2.50288 0C3.23288 0 3.87164 0.366168 4.41914 1.09957L11.9278 11.5063L10.8328 11.3492L17.7548 1.17812C18.3023 0.392707 18.9541 0 19.7102 0ZM33.4247 28C31.2086 28 29.2793 27.5415 27.6368 26.6255C26.0203 25.683 24.7689 24.4131 23.8824 22.8163C23.0221 21.2189 22.5919 19.4125 22.5919 17.3969C22.5919 15.0407 23.0612 13.0379 23.9998 11.3885C24.9644 9.71259 26.2158 8.42993 27.7541 7.53997C29.2923 6.64948 30.9218 6.20477 32.6425 6.20477C33.9722 6.20477 35.2236 6.47966 36.3968 7.02945C37.5961 7.57924 38.652 8.33812 39.5645 9.30715C40.4771 10.2496 41.194 11.3492 41.7154 12.6059C42.2629 13.8625 42.5367 15.1977 42.5367 16.6115C42.5106 17.2398 42.2629 17.7504 41.7937 18.1431C41.3244 18.5358 40.7769 18.7321 40.1511 18.7321H25.2121L24.0389 14.805H38.3913L37.5309 15.5905V14.5301C37.4788 13.7707 37.205 13.0899 36.7097 12.4881C36.2404 11.8857 35.6407 11.4145 34.9107 11.0743C34.2068 10.7076 33.4507 10.5245 32.6425 10.5245C31.8604 10.5245 31.1304 10.6291 30.4525 10.8387C29.7746 11.0478 29.188 11.4012 28.6927 11.899C28.1973 12.3963 27.8062 13.0639 27.5194 13.9018C27.2326 14.7392 27.0893 15.7995 27.0893 17.0827C27.0893 18.4965 27.3761 19.7006 27.9496 20.6957C28.5493 21.6642 29.3053 22.4103 30.2179 22.9341C31.1564 23.4313 32.1472 23.6802 33.19 23.6802C34.1547 23.6802 34.9238 23.6017 35.4974 23.4446C36.0709 23.2875 36.5272 23.1039 36.8661 22.8948C37.2311 22.6592 37.557 22.4628 37.8438 22.3057C38.3131 22.0701 38.7563 21.9523 39.1735 21.9523C39.747 21.9523 40.2163 22.1487 40.5813 22.5414C40.9724 22.9341 41.1679 23.3921 41.1679 23.9158C41.1679 24.6227 40.8029 25.2638 40.0729 25.8401C39.3951 26.4159 38.4435 26.9264 37.2181 27.3717C35.9927 27.7904 34.7283 28 33.4247 28ZM56.4918 28C54.2759 28 52.3464 27.5415 50.704 26.6255C49.0876 25.683 47.8362 24.4131 46.9497 22.8163C46.0893 21.2189 45.6592 19.4125 45.6592 17.3969C45.6592 15.0407 46.1285 13.0379 47.067 11.3885C48.0317 9.71259 49.2832 8.42993 50.8213 7.53997C52.3596 6.64948 53.9889 6.20477 55.7097 6.20477C57.0393 6.20477 58.2908 6.47966 59.464 7.02945C60.6636 7.57924 61.7195 8.33812 62.6317 9.30715C63.5444 10.2496 64.2615 11.3492 64.7826 12.6059C65.3301 13.8625 65.6039 15.1977 65.6039 16.6115C65.578 17.2398 65.3301 17.7504 64.8608 18.1431C64.3915 18.5358 63.844 18.7321 63.2183 18.7321H48.2794L47.1061 14.805H61.4585L60.5981 15.5905V14.5301C60.5463 13.7707 60.2726 13.0899 59.7769 12.4881C59.3076 11.8857 58.7083 11.4145 57.9779 11.0743C57.274 10.7076 56.5182 10.5245 55.7097 10.5245C54.9275 10.5245 54.1977 10.6291 53.5197 10.8387C52.8421 11.0478 52.2555 11.4012 51.7599 11.899C51.2646 12.3963 50.8735 13.0639 50.5867 13.9018C50.3 14.7392 50.1565 15.7995 50.1565 17.0827C50.1565 18.4965 50.4433 19.7006 51.0169 20.6957C51.6166 21.6642 52.3729 22.4103 53.285 22.9341C54.2236 23.4313 55.2145 23.6802 56.2572 23.6802C57.2222 23.6802 57.9911 23.6017 58.5645 23.4446C59.1384 23.2875 59.5945 23.1039 59.9333 22.8948C60.2985 22.6592 60.6245 22.4628 60.911 22.3057C61.3803 22.0701 61.8237 21.9523 62.2406 21.9523C62.8145 21.9523 63.2838 22.1487 63.6485 22.5414C64.0396 22.9341 64.2351 23.3921 64.2351 23.9158C64.2351 24.6227 63.8705 25.2638 63.1401 25.8401C62.4626 26.4159 61.5108 26.9264 60.2853 27.3717C59.0602 27.7904 57.7956 28 56.4918 28ZM81.8276 0.117812C83.7048 0.117812 85.3732 0.471249 86.8334 1.17812C88.2931 1.88499 89.5186 2.87949 90.5095 4.16269C91.5263 5.41935 92.282 6.8851 92.7777 8.561C93.2988 10.2104 93.5599 11.9776 93.5599 13.8625C93.5599 16.4019 93.1033 18.7188 92.1911 20.8135C91.2784 22.8815 89.9488 24.5309 88.2022 25.7616C86.4814 26.9917 84.3564 27.6073 81.8276 27.6073H72.481C71.8029 27.6073 71.2295 27.3844 70.7602 26.9397C70.3168 26.4684 70.0954 25.8921 70.0954 25.2118V2.51332C70.0954 1.83245 70.3168 1.2694 70.7602 0.824685C71.2295 0.353437 71.8029 0.117812 72.481 0.117812H81.8276ZM81.4366 23.0912C83.0791 23.0912 84.4214 22.6719 85.4646 21.8345C86.5073 20.9705 87.2636 19.8444 87.7329 18.4572C88.2281 17.0435 88.4759 15.5119 88.4759 13.8625C88.4759 12.6319 88.3322 11.467 88.0457 10.3675C87.7847 9.24134 87.3677 8.25958 86.7943 7.42215C86.2204 6.5582 85.4905 5.87734 84.6043 5.38008C83.7175 4.8823 82.6616 4.63394 81.4366 4.63394H74.5928L74.9838 4.2805V23.5231L74.7492 23.0912H81.4366ZM107.82 28C105.604 28 103.675 27.5415 102.032 26.6255C100.416 25.683 99.1649 24.4131 98.2782 22.8163C97.4178 21.2189 96.9876 19.4125 96.9876 17.3969C96.9876 15.0407 97.4569 13.0379 98.3955 11.3885C99.3605 9.71259 100.612 8.42993 102.15 7.53997C103.688 6.64948 105.317 6.20477 107.038 6.20477C108.368 6.20477 109.619 6.47966 110.793 7.02945C111.992 7.57924 113.048 8.33812 113.96 9.30715C114.873 10.2496 115.59 11.3492 116.111 12.6059C116.659 13.8625 116.932 15.1977 116.932 16.6115C116.907 17.2398 116.659 17.7504 116.189 18.1431C115.72 18.5358 115.173 18.7321 114.547 18.7321H99.6078L98.4346 14.805H112.787L111.927 15.5905V14.5301C111.875 13.7707 111.601 13.0899 111.105 12.4881C110.636 11.8857 110.037 11.4145 109.306 11.0743C108.603 10.7076 107.847 10.5245 107.038 10.5245C106.256 10.5245 105.526 10.6291 104.848 10.8387C104.171 11.0478 103.584 11.4012 103.088 11.899C102.593 12.3963 102.202 13.0639 101.915 13.9018C101.629 14.7392 101.485 15.7995 101.485 17.0827C101.485 18.4965 101.772 19.7006 102.345 20.6957C102.945 21.6642 103.701 22.4103 104.614 22.9341C105.552 23.4313 106.543 23.6802 107.586 23.6802C108.551 23.6802 109.32 23.6017 109.893 23.4446C110.467 23.2875 110.923 23.1039 111.262 22.8948C111.627 22.6592 111.953 22.4628 112.24 22.3057C112.709 22.0701 113.152 21.9523 113.569 21.9523C114.143 21.9523 114.612 22.1487 114.977 22.5414C115.368 22.9341 115.564 23.3921 115.564 23.9158C115.564 24.6227 115.199 25.2638 114.469 25.8401C113.791 26.4159 112.839 26.9264 111.614 27.3717C110.389 27.7904 109.124 28 107.82 28ZM130.888 28C128.672 28 126.743 27.5415 125.1 26.6255C123.483 25.683 122.232 24.4131 121.346 22.8163C120.485 21.2189 120.055 19.4125 120.055 17.3969C120.055 15.0407 120.524 13.0379 121.463 11.3885C122.428 9.71259 123.679 8.42993 125.217 7.53997C126.755 6.64948 128.385 6.20477 130.106 6.20477C131.435 6.20477 132.687 6.47966 133.86 7.02945C135.059 7.57924 136.115 8.33812 137.028 9.30715C137.94 10.2496 138.657 11.3492 139.179 12.6059C139.726 13.8625 140 15.1977 140 16.6115C139.974 17.2398 139.726 17.7504 139.257 18.1431C138.788 18.5358 138.24 18.7321 137.614 18.7321H122.675L121.502 14.805H135.855L134.994 15.5905V14.5301C134.942 13.7707 134.668 13.0899 134.173 12.4881C133.704 11.8857 133.104 11.4145 132.374 11.0743C131.67 10.7076 130.914 10.5245 130.106 10.5245C129.324 10.5245 128.593 10.6291 127.916 10.8387C127.238 11.0478 126.651 11.4012 126.156 11.899C125.66 12.3963 125.269 13.0639 124.983 13.9018C124.696 14.7392 124.553 15.7995 124.553 17.0827C124.553 18.4965 124.839 19.7006 125.413 20.6957C126.012 21.6642 126.768 22.4103 127.681 22.9341C128.62 23.4313 129.61 23.6802 130.653 23.6802C131.618 23.6802 132.387 23.6017 132.961 23.4446C133.534 23.2875 133.99 23.1039 134.329 22.8948C134.694 22.6592 135.02 22.4628 135.307 22.3057C135.776 22.0701 136.219 21.9523 136.637 21.9523C137.21 21.9523 137.679 22.1487 138.045 22.5414C138.436 22.9341 138.631 23.3921 138.631 23.9158C138.631 24.6227 138.266 25.2638 137.536 25.8401C136.858 26.4159 135.906 26.9264 134.681 27.3717C133.456 27.7904 132.191 28 130.888 28Z" fill="white"/>
</svg>
